# xmcd
#
# Track frame offsets:
#	150
#	3994
#	19250
#	34847
#	51190
#	88598
#	101653
#	120545
#	143262
#	165310
#
# Disc length: 2321 seconds
#
# Revision: 8
# Processed by: cddbd v1.5.2PL0 Copyright (c) Steve Scherf et al.
# Submitted via: EZCDAudioConverter 5.0.3.3
#
DISCID=6f090f0a
DTITLE=Free - Tons Of Sobs (Vinyl)
DYEAR=2016
DGENRE=Blues
TTITLE0=Over The Green Hills (Part I)
TTITLE1=Worry
TTITLE2=Walk In My Shadow
TTITLE3=Wild Indian Woman
TTITLE4=Goin' Down Slow
TTITLE5=I'm A Mover
TTITLE6=The Hunter
TTITLE7=Moonshine
TTITLE8=Sweet Tooth
TTITLE9=Over The Green Hills (Part II)
EXTD=
EXTT0=
EXTT1=
EXTT2=
EXTT3=
EXTT4=
EXTT5=
EXTT6=
EXTT7=
EXTT8=
EXTT9=
PLAYORDER=
